<?xml version="1.0" encoding="UTF-8" standalone="no"?>
<!-- Created with Inkscape (http://www.inkscape.org/) -->

<svg
   xmlns:dc="http://purl.org/dc/elements/1.1/"
   xmlns:cc="http://creativecommons.org/ns#"
   xmlns:rdf="http://www.w3.org/1999/02/22-rdf-syntax-ns#"
   xmlns:svg="http://www.w3.org/2000/svg"
   xmlns="http://www.w3.org/2000/svg"
   xmlns:sodipodi="http://sodipodi.sourceforge.net/DTD/sodipodi-0.dtd"
   xmlns:inkscape="http://www.inkscape.org/namespaces/inkscape"
   width="210mm"
   height="297mm"
   viewBox="0 0 210 297"
   version="1.1"
   id="svg8"
   inkscape:version="0.92.3 (2405546, 2018-03-11)"
   sodipodi:docname="Logo.svg">
  <defs
     id="defs2" />
  <sodipodi:namedview
     id="base"
     pagecolor="#ffffff"
     bordercolor="#666666"
     borderopacity="1.0"
     inkscape:pageopacity="0.0"
     inkscape:pageshadow="2"
     inkscape:zoom="0.35"
     inkscape:cx="400"
     inkscape:cy="560"
     inkscape:document-units="mm"
     inkscape:current-layer="layer1"
     showgrid="false"
     inkscape:window-width="1366"
     inkscape:window-height="705"
     inkscape:window-x="-8"
     inkscape:window-y="-8"
     inkscape:window-maximized="1" />
  <metadata
     id="metadata5">
    <rdf:RDF>
      <cc:Work
         rdf:about="">
        <dc:format>image/svg+xml</dc:format>
        <dc:type
           rdf:resource="http://purl.org/dc/dcmitype/StillImage" />
        <dc:title></dc:title>
      </cc:Work>
    </rdf:RDF>
  </metadata>
  <g
     inkscape:label="Capa 1"
     inkscape:groupmode="layer"
     id="layer1">
    <path
       style="fill:#d40000;stroke-width:0.26458332"
       id="path10"
       d="m 25.068202,24.373645 c -2.281714,-0.05379 -4.564331,-0.03545 -6.846431,-0.02533 -1.689803,-0.01709 -3.464836,0.04986 -5.047258,0.694574 -1.325702,0.348519 -2.486743,1.000432 -3.6815526,1.633924 16.0959606,-9.597396 9.3002986,-6.391106 6.5964296,-2.606879 -0.802219,1.29226 -1.140523,2.804541 -1.522669,4.261475 -0.210651,1.378484 -0.578037,2.717982 -0.895497,4.073146 -0.288214,1.366539 -0.327314,2.766545 -0.360289,4.157607 -0.02325,1.504011 -0.01685,3.008281 -0.01454,4.512411 0.185018,1.209852 0.288143,2.489234 0.818397,3.604794 0.520779,1.001697 1.266892,1.900947 2.101131,2.659666 0.8324,0.776848 1.516459,1.66016 2.145015,2.608805 0.633617,0.822364 1.587039,1.229783 2.417264,1.798357 0.752094,0.745625 1.584689,1.475428 2.556257,1.91594 1.144167,0.733179 2.466196,0.944714 3.791027,1.081022 1.487549,0.11227 2.980775,0.101544 4.471509,0.100414 1.514253,-0.0044 3.0285,-0.009 4.542753,-0.01148 1.531839,0.08067 2.999258,-0.01789 4.44087,-0.558792 1.563142,-0.471498 3.045338,-1.189884 4.572301,-1.775841 3.671364,-2.323827 -0.9217,0.596144 -8.428252,4.787069 -0.16956,0.09467 0.311875,-0.234616 0.445077,-0.375935 0.433388,-0.459796 0.584245,-1.006756 0.743752,-1.598089 0.254206,-1.424742 0.221464,-2.880675 0.218906,-4.322355 -0.120587,-1.332709 0.243046,-2.776874 -0.245047,-4.050792 -0.747845,-0.743056 -2.015368,-0.637085 -2.999938,-0.672563 -1.494425,-0.02537 -2.989176,-0.0021 -4.483651,0.0088 -1.518316,0.01077 -3.036673,0.01333 -4.555021,0.01495 -3.272687,1.03409 -11.445907,6.152721 8.115122,-4.741254 0.138272,-0.077 -0.263363,0.182028 -0.365879,0.30261 -0.270407,0.318058 -0.31328,0.594055 -0.438721,0.983927 -0.0371,0.208817 -0.07419,0.417637 -0.111287,0.626454 0,0 -10.04925,4.961794 -10.04925,4.961794 v 0 c 0.01958,-0.238429 0.03917,-0.476861 0.05875,-0.71529 0.744071,-5.249286 6.709734,-7.765137 11.844572,-7.99787 1.516904,-0.0028 3.033802,-0.0076 4.550666,-0.01955 1.513824,-0.01032 3.029987,-0.03915 4.541875,0.05437 1.44368,0.145153 2.860958,0.393647 3.693001,1.71959 0.585914,1.42045 0.377709,2.930682 0.414541,4.439849 0.0096,1.505773 0.03894,3.016287 -0.104756,4.517186 -0.781079,5.541354 -6.095185,6.767571 -11.637293,8.990248 -1.520412,0.630499 -3.049683,1.260107 -4.641228,1.688629 -1.532636,0.321204 -3.068844,0.361439 -4.632227,0.312878 -1.515184,0.0032 -3.030371,0.0098 -4.54556,0.007 -1.52214,-0.0097 -3.050144,-0.01532 -4.561561,-0.218276 -1.426501,-0.239011 -2.797578,-0.634505 -4.04449,-1.39278 -0.937614,-0.568983 -1.787756,-1.263073 -2.607,-1.989997 C 10.336989,57.224663 9.3681676,56.569063 8.6702679,55.62858 8.0767006,54.751849 7.4307601,53.942216 6.6503965,53.22247 5.7666379,52.322799 4.9282273,51.348537 4.3647047,50.212223 3.7447198,48.939178 3.5674808,47.543337 3.3253135,46.157132 c -0.00265,-1.510229 -0.00871,-3.020494 0.00183,-4.530704 0.018142,-1.44826 0.035552,-2.902786 0.2528842,-4.337865 0.2544736,-1.390499 0.7766651,-2.702015 0.900538,-4.117279 0.3498842,-1.557269 0.7660581,-3.123448 1.3714063,-4.598286 2.7180442,-4.749314 7.076612,-6.16322 12.380471,-8.920213 1.205877,-0.637128 2.504778,-1.062576 3.809895,-1.449376 1.713766,-0.33121 3.435433,-0.495275 5.183532,-0.396986 2.305355,0.01034 4.611175,0.0275 6.916166,-0.02533 0,0 -9.073837,6.592528 -9.073837,6.592528 z"
       inkscape:connector-curvature="0" />
    <path
       style="fill:#d40000;stroke-width:0.26458332"
       id="path12"
       d="m 49.354115,43.576766 c -2.16349,0.464373 -4.187089,1.383578 -6.290895,2.046235 -1.671089,0.545671 -3.209046,1.333891 -4.747262,2.158637 -8.154429,4.214331 32.023735,-18.221944 -1.732884,0.921583 -3.051312,1.730412 6.067772,-3.521837 9.120455,-5.249825 0.350533,-0.198422 -0.633513,0.499113 -0.928322,0.773581 -0.847797,0.996116 -1.766025,1.931286 -2.566681,2.966804 -0.721651,1.170522 -1.158732,2.471561 -1.431882,3.81113 -0.247902,1.537467 -0.262105,3.100306 -0.280737,4.653852 -0.0073,1.675463 0.0056,3.350934 0.01212,5.026382 -0.07989,1.522428 0.05479,3.009929 0.306004,4.507862 0.158393,1.266161 0.578191,2.476937 1.098524,3.634862 0.572846,1.107638 1.172106,2.224918 2.017321,3.150542 1.003384,0.929476 2.095251,1.794536 3.280267,2.486273 1.015616,0.712666 2.079937,1.42775 3.23792,1.889091 1.25208,0.371224 2.571647,0.378002 3.86661,0.405095 1.286352,0.346192 2.59039,0.557075 3.916474,0.66289 1.378008,0.246301 2.634708,-0.07418 3.966509,-0.346329 3.237195,-2.144389 7.376305,-4.073088 -8.108969,4.574826 -0.18212,0.101708 0.313683,-0.275079 0.468345,-0.415052 0.524057,-0.474287 0.363323,-0.323585 0.844788,-0.855035 0.957633,-0.772465 1.804797,-1.631913 2.63013,-2.543249 0.803791,-0.975935 1.747745,-1.823932 2.5551,-2.797469 0.775052,-0.945618 1.26696,-1.936144 1.513049,-3.129272 0.211897,-1.422413 0.201827,-2.865625 0.208023,-4.30022 0.0561,-1.210662 -0.09252,-2.332466 -1.006822,-3.178741 -0.797422,-0.810477 -1.812959,-1.461371 -2.872462,-1.880209 -1.208659,-0.291833 -2.528816,-0.53168 -3.751699,-0.23781 -3.481168,0.943414 -9.987425,5.353754 7.944324,-4.707273 0.185041,-0.10382 -0.366258,0.214463 -0.545711,0.327665 -0.566928,0.357629 -0.445474,0.286144 -0.95789,0.725622 -0.943311,0.671772 -1.388795,1.728822 -1.856758,2.74786 -0.406001,0.885666 -0.815237,1.743075 -1.060141,2.689584 0,0 -10.094126,4.886537 -10.094126,4.886537 v 0 c 0.16179,-1.004398 0.36522,-2.006415 0.974706,-2.848856 0.338556,-1.070578 0.945597,-2.402123 1.627936,-3.282193 2.163938,-1.703078 -1.301527,1.064707 0.915403,-0.85108 3.418568,-2.954195 7.509968,-5.851221 12.056533,-6.371339 1.396992,0.02297 2.813212,0.147902 4.104434,0.724466 1.126384,0.589056 2.225413,1.281793 3.087169,2.227811 1.019556,1.122068 1.495205,2.41487 1.408459,3.948422 0.0013,1.483719 0.01418,2.970744 -0.114112,4.450283 -0.154019,1.287124 -0.37075,2.586675 -1.303107,3.561739 -0.615315,1.137446 -1.582772,2.00791 -2.515997,2.889136 -0.708311,0.990214 -1.518225,2.029071 -2.579738,2.651279 -0.447916,0.408897 -0.771509,1.017611 -1.290257,1.337939 -1.913969,1.181891 -7.169692,5.531242 -11.22386,6.421978 -1.380601,0.262091 -2.757734,0.247364 -4.153509,0.07404 -1.299535,-0.156009 -2.568392,-0.472157 -3.868054,-0.608555 -1.407168,-0.06959 -2.836831,-0.16348 -4.138973,-0.754702 -1.14618,-0.587844 -2.24578,-1.272101 -3.294837,-2.018962 -1.23707,-0.808032 -2.425634,-1.711034 -3.464465,-2.764337 -0.880782,-1.044165 -1.574096,-2.218095 -2.199415,-3.429892 -0.556255,-1.244079 -1.030714,-2.542693 -1.205193,-3.901805 -0.262633,-1.555197 -0.512307,-3.08728 -0.386577,-4.673603 -2.65e-4,-1.680855 -0.0011,-3.361711 -7.94e-4,-5.042569 7.94e-4,-1.603351 -0.01685,-3.211727 0.173709,-4.806902 0.21272,-1.468337 0.611966,-2.852354 1.227881,-4.203346 0.624454,-1.188653 1.601711,-2.121627 2.508062,-3.100633 2.417522,-3.65419 7.373332,-4.498422 10.864027,-6.951591 2.8545,-2.006068 -12.157818,6.846752 -9.063593,5.234845 3.464478,-1.804792 6.783528,-3.875985 10.175293,-5.813976 0.204203,-0.105301 0.408403,-0.210605 0.612606,-0.31591 1.536819,-0.815419 3.178207,-1.405413 4.82033,-1.971585 2.112253,-0.726336 4.209248,-1.500057 6.376059,-2.055987 0,0 -8.882962,6.839453 -8.882962,6.839453 z"
       inkscape:connector-curvature="0" />
  </g>
</svg>
